<svg xmlns="http://www.w3.org/2000/svg" width="177.14" height="35" viewBox="0 0 177.14 35"><rect class="svg__rect" x="0" y="0" width="76.38" height="35" fill="#8431ED"/><rect class="svg__rect" x="74.38" y="0" width="102.75999999999999" height="35" fill="#8229C7"/><path class="svg__text" d="M15.70 22L14.22 22L14.22 13.47L17.22 13.47Q18.69 13.47 19.50 14.13Q20.30 14.79 20.30 16.05L20.30 16.05Q20.30 16.90 19.89 17.48Q19.47 18.06 18.73 18.37L18.73 18.37L20.65 21.92L20.65 22L19.06 22L17.35 18.71L15.70 18.71L15.70 22ZM15.70 14.66L15.70 17.52L17.22 17.52Q17.97 17.52 18.39 17.15Q18.82 16.77 18.82 16.11L18.82 16.11Q18.82 15.43 18.43 15.05Q18.04 14.68 17.26 14.66L17.26 14.66L15.70 14.66ZM30.27 22L24.69 22L24.69 13.47L30.23 13.47L30.23 14.66L26.18 14.66L26.18 17.02L29.68 17.02L29.68 18.19L26.18 18.19L26.18 20.82L30.27 20.82L30.27 22ZM36.92 22L34.47 22L34.47 13.47L36.99 13.47Q38.12 13.47 38.99 13.97Q39.87 14.48 40.35 15.40Q40.83 16.33 40.83 17.52L40.83 17.52L40.83 17.95Q40.83 19.16 40.35 20.08Q39.86 21.00 38.97 21.50Q38.08 22 36.92 22L36.92 22ZM35.95 14.66L35.95 20.82L36.92 20.82Q38.08 20.82 38.71 20.09Q39.33 19.36 39.34 17.99L39.34 17.99L39.34 17.52Q39.34 16.13 38.74 15.40Q38.14 14.66 36.99 14.66L36.99 14.66L35.95 14.66ZM45.16 19.16L45.16 19.16L45.16 13.47L46.64 13.47L46.64 19.18Q46.64 20.03 47.07 20.48Q47.50 20.93 48.35 20.93L48.35 20.93Q50.06 20.93 50.06 19.13L50.06 19.13L50.06 13.47L51.54 13.47L51.54 19.17Q51.54 20.53 50.67 21.32Q49.80 22.12 48.35 22.12L48.35 22.12Q46.88 22.12 46.02 21.33Q45.16 20.55 45.16 19.16ZM57.20 22L55.48 22L58.12 17.70L55.54 13.47L57.25 13.47L59.04 16.55L60.83 13.47L62.55 13.47L59.97 17.70L62.60 22L60.88 22L59.04 18.87L57.20 22Z" fill="#FFFFFF"/><path class="svg__text" d="M90.36 15.48L87.78 15.48L87.78 13.60L95.30 13.60L95.30 15.48L92.73 15.48L92.73 22L90.36 22L90.36 15.48ZM99.24 17.80L99.24 17.80Q99.24 16.55 99.85 15.55Q100.45 14.56 101.51 14.00Q102.58 13.43 103.91 13.43L103.91 13.43Q105.24 13.43 106.30 14.00Q107.36 14.56 107.97 15.55Q108.58 16.55 108.58 17.80L108.58 17.80Q108.58 19.05 107.97 20.04Q107.36 21.04 106.30 21.60Q105.24 22.17 103.91 22.17L103.91 22.17Q102.58 22.17 101.51 21.60Q100.45 21.04 99.85 20.04Q99.24 19.05 99.24 17.80ZM101.64 17.80L101.64 17.80Q101.64 18.51 101.94 19.05Q102.24 19.60 102.76 19.90Q103.27 20.20 103.91 20.20L103.91 20.20Q104.55 20.20 105.06 19.90Q105.58 19.60 105.88 19.05Q106.18 18.51 106.18 17.80L106.18 17.80Q106.18 17.09 105.88 16.54Q105.58 16 105.06 15.70Q104.55 15.40 103.91 15.40L103.91 15.40Q103.27 15.40 102.76 15.70Q102.24 16 101.94 16.54Q101.64 17.09 101.64 17.80ZM112.88 17.80L112.88 17.80Q112.88 16.55 113.48 15.55Q114.09 14.56 115.15 14.00Q116.21 13.43 117.54 13.43L117.54 13.43Q118.87 13.43 119.94 14.00Q121.00 14.56 121.61 15.55Q122.21 16.55 122.21 17.80L122.21 17.80Q122.21 19.05 121.61 20.04Q121.00 21.04 119.94 21.60Q118.88 22.17 117.54 22.17L117.54 22.17Q116.21 22.17 115.15 21.60Q114.09 21.04 113.48 20.04Q112.88 19.05 112.88 17.80ZM115.27 17.80L115.27 17.80Q115.27 18.51 115.58 19.05Q115.88 19.60 116.39 19.90Q116.91 20.20 117.54 20.20L117.54 20.20Q118.18 20.20 118.70 19.90Q119.21 19.60 119.51 19.05Q119.81 18.51 119.81 17.80L119.81 17.80Q119.81 17.09 119.51 16.54Q119.21 16 118.70 15.70Q118.18 15.40 117.54 15.40L117.54 15.40Q116.90 15.40 116.39 15.70Q115.88 16 115.58 16.54Q115.27 17.09 115.27 17.80ZM133.33 22L126.94 22L126.94 13.60L129.32 13.60L129.32 20.11L133.33 20.11L133.33 22ZM140.10 22L137.75 22L137.75 13.60L140.10 13.60L140.10 17.09L143.35 13.60L145.97 13.60L142.54 17.32L146.15 22L143.39 22L140.99 18.95L140.10 19.90L140.10 22ZM152.63 22L150.26 22L150.26 13.60L152.63 13.60L152.63 22ZM159.60 15.48L157.02 15.48L157.02 13.60L164.54 13.60L164.54 15.48L161.97 15.48L161.97 22L159.60 22L159.60 15.48Z" fill="#FFFFFF" x="87.38"/></svg>